<svg width="16" height="15" viewBox="0 0 16 15" fill="none" xmlns="http://www.w3.org/2000/svg">
<path d="M10.3062 6.53426H8.53993V3.24304L9.00506 3.71406C9.05979 3.76924 9.12491 3.81304 9.19666 3.84294C9.26841 3.87283 9.34536 3.88822 9.42309 3.88822C9.50081 3.88822 9.57776 3.87283 9.64951 3.84294C9.72126 3.81304 9.78638 3.76924 9.84111 3.71406C9.8963 3.65933 9.9401 3.59421 9.96999 3.52246C9.99988 3.45071 10.0153 3.37376 10.0153 3.29603C10.0153 3.21831 9.99988 3.14135 9.96999 3.06961C9.9401 2.99786 9.8963 2.93274 9.84111 2.87801L8.36919 1.40609C8.3132 1.35249 8.24717 1.31047 8.1749 1.28245C8.03155 1.22356 7.87078 1.22356 7.72743 1.28245C7.65516 1.31047 7.58913 1.35249 7.53314 1.40609L6.06122 2.87801C5.95035 2.98888 5.88807 3.13924 5.88807 3.29603C5.88807 3.45282 5.95035 3.60319 6.06122 3.71406C6.17209 3.82493 6.32245 3.88721 6.47924 3.88721C6.63603 3.88721 6.7864 3.82493 6.89727 3.71406L7.3624 3.24304V6.53426H5.59609C5.43994 6.53426 5.29019 6.59629 5.17977 6.7067C5.06936 6.81712 5.00732 6.96688 5.00732 7.12303C5.00732 7.27918 5.06936 7.42893 5.17977 7.53935C5.29019 7.64976 5.43994 7.71179 5.59609 7.71179H7.3624V11.003L6.89727 10.532C6.84237 10.4771 6.7772 10.4336 6.70548 10.4038C6.63375 10.3741 6.55688 10.3588 6.47924 10.3588C6.40161 10.3588 6.32474 10.3741 6.25301 10.4038C6.18129 10.4336 6.11611 10.4771 6.06122 10.532C6.00632 10.5869 5.96278 10.6521 5.93307 10.7238C5.90336 10.7955 5.88807 10.8724 5.88807 10.95C5.88807 11.0277 5.90336 11.1045 5.93307 11.1763C5.96278 11.248 6.00632 11.3131 6.06122 11.368L7.53314 12.84C7.58913 12.8936 7.65516 12.9356 7.72743 12.9636C7.79791 12.9948 7.87411 13.0108 7.95116 13.0108C8.02822 13.0108 8.10442 12.9948 8.1749 12.9636C8.24717 12.9356 8.3132 12.8936 8.36919 12.84L9.84111 11.368C9.95198 11.2572 10.0143 11.1068 10.0143 10.95C10.0143 10.7932 9.95198 10.6429 9.84111 10.532C9.73024 10.4211 9.57987 10.3588 9.42309 10.3588C9.2663 10.3588 9.11593 10.4211 9.00506 10.532L8.53993 11.003V7.71179H10.3062C10.4624 7.71179 10.6121 7.64976 10.7226 7.53935C10.833 7.42893 10.895 7.27918 10.895 7.12303C10.895 6.96688 10.833 6.81712 10.7226 6.7067C10.6121 6.59629 10.4624 6.53426 10.3062 6.53426Z" fill="#949AAC"/>
</svg>
