<svg width="15" height="15" viewBox="0 0 15 15" fill="none" xmlns="http://www.w3.org/2000/svg">
<path d="M2.8606 3.59018C2.8606 3.10242 3.256 2.70703 3.74375 2.70703H11.3977C11.8855 2.70703 12.2809 3.10242 12.2809 3.59018V6.82841H2.8606V3.59018Z" stroke="#949AAC" stroke-width="1.1481" stroke-linecap="round" stroke-linejoin="round"/>
<path d="M2.27197 10.3633V11.5408" stroke="#949AAC" stroke-width="1.1481" stroke-linecap="round" stroke-linejoin="round"/>
<path d="M12.8696 10.3633V11.5408" stroke="#949AAC" stroke-width="1.1481" stroke-linecap="round" stroke-linejoin="round"/>
<path d="M7.27626 6.8313V6.24253C7.27626 5.75476 6.88087 5.35938 6.39311 5.35938H4.6268C4.13904 5.35938 3.74365 5.75476 3.74365 6.24253V6.8313" stroke="#949AAC" stroke-width="1.1481" stroke-linecap="round" stroke-linejoin="round"/>
<path d="M11.3981 6.8313V6.24253C11.3981 5.75476 11.0027 5.35938 10.5149 5.35938H8.74863C8.26087 5.35938 7.86548 5.75476 7.86548 6.24253V6.8313" stroke="#949AAC" stroke-width="1.1481" stroke-linecap="round" stroke-linejoin="round"/>
<path d="M1.68335 7.71518C1.68335 7.22742 2.07875 6.83203 2.5665 6.83203H12.5756C13.0633 6.83203 13.4587 7.22742 13.4587 7.71518V10.3646H1.68335V7.71518Z" stroke="#949AAC" stroke-width="1.1481" stroke-linecap="round" stroke-linejoin="round"/>
</svg>
