<svg width="19" height="18" viewBox="0 0 19 18" fill="none" xmlns="http://www.w3.org/2000/svg">
<path d="M0.723633 18V4.125H4.84863V0H14.5986V8.25H18.7236V18H11.0486V13.875H8.39863V18H0.723633ZM2.22363 16.5H4.84863V13.875H2.22363V16.5ZM2.22363 12.375H4.84863V9.75H2.22363V12.375ZM2.22363 8.25H4.84863V5.625H2.22363V8.25ZM6.34863 12.375H8.97363V9.75H6.34863V12.375ZM6.34863 8.25H8.97363V5.625H6.34863V8.25ZM6.34863 4.125H8.97363V1.5H6.34863V4.125ZM10.4736 12.375H13.0986V9.75H10.4736V12.375ZM10.4736 8.25H13.0986V5.625H10.4736V8.25ZM10.4736 4.125H13.0986V1.5H10.4736V4.125ZM14.5986 16.5H17.2236V13.875H14.5986V16.5ZM14.5986 12.375H17.2236V9.75H14.5986V12.375Z" fill="#949AAC"/>
</svg>
