<svg width="18" height="20" viewBox="0 0 18 20" fill="none" xmlns="http://www.w3.org/2000/svg">
<path d="M15.7772 2.06187H14.4674V1.32861C14.4674 0.616415 13.9315 0.0507812 13.2568 0.0507812C12.5821 0.0507812 12.0463 0.616415 12.0463 1.32861V2.06187H5.93384V1.32861C5.93384 0.616415 5.39797 0.0507812 4.72326 0.0507812C4.04855 0.0507812 3.51269 0.616415 3.51269 1.32861V2.06187H2.20285C0.992275 2.06187 0 3.10927 0 4.3871V5.58121H17.9999V4.3871C17.9799 3.08821 17.0074 2.06187 15.7771 2.06187H15.7772Z" fill="#949AAC"/>
<path d="M0.000138431 17.6256C0.000138431 18.9035 0.992413 19.9509 2.20299 19.9509H15.7972C17.0077 19.9509 18 18.9035 18 17.6256L17.9999 7.04688H0L0.000138431 17.6256ZM11.8082 11.0061C11.8082 10.7756 11.9868 10.608 12.1853 10.608H13.9913C14.2096 10.608 14.3684 10.7965 14.3684 11.0061V12.263C14.3684 12.4934 14.1898 12.6611 13.9913 12.6611H12.1853C11.967 12.6611 11.8082 12.4726 11.8082 12.263V11.0061ZM11.8082 14.7348C11.8082 14.5044 11.9868 14.3367 12.1853 14.3367H13.9913C14.2096 14.3367 14.3684 14.5252 14.3684 14.7348V15.9918C14.3684 16.2222 14.1898 16.3898 13.9913 16.3898H12.1853C11.967 16.3898 11.8082 16.2013 11.8082 15.9918V14.7348ZM7.70019 11.0061C7.70019 10.7756 7.87877 10.608 8.07729 10.608H9.88326C10.1016 10.608 10.2604 10.7965 10.2604 11.0061V12.263C10.2604 12.4934 10.0818 12.6611 9.88326 12.6611H8.07729C7.85898 12.6611 7.70019 12.4726 7.70019 12.263V11.0061ZM7.70019 14.7348C7.70019 14.5044 7.87877 14.3367 8.07729 14.3367H9.88326C10.1016 14.3367 10.2604 14.5252 10.2604 14.7348V15.9918C10.2604 16.2222 10.0818 16.3898 9.88326 16.3898H8.07729C7.85898 16.3898 7.70019 16.2013 7.70019 15.9918V14.7348ZM3.61202 11.0061C3.61202 10.7756 3.7906 10.608 3.98912 10.608H5.79509C6.0134 10.608 6.17219 10.7965 6.17219 11.0061V12.263C6.17219 12.4934 5.99362 12.6611 5.79509 12.6611H3.98912C3.77081 12.6611 3.61202 12.4726 3.61202 12.263V11.0061ZM3.61202 14.7348C3.61202 14.5044 3.7906 14.3367 3.98912 14.3367H5.79509C6.0134 14.3367 6.17219 14.5252 6.17219 14.7348V15.9918C6.17219 16.2222 5.99362 16.3898 5.79509 16.3898H3.98912C3.77081 16.3898 3.61202 16.2013 3.61202 15.9918V14.7348Z" fill="#949AAC"/>
</svg>
