<svg width="21" height="20" viewBox="0 0 21 20" fill="none" xmlns="http://www.w3.org/2000/svg">
<path d="M10.5469 0.121094C5.0871 0.121094 0.666016 4.56881 0.666016 10.002C0.666016 15.4617 5.08715 19.8828 10.5469 19.8828C16.0066 19.8828 20.4277 15.4349 20.4277 10.002C20.4277 4.56895 16.0066 0.121094 10.5469 0.121094ZM14.968 11.4668H10.0942C9.58808 11.4668 9.16191 11.0406 9.16191 10.5345V4.94158C9.16191 4.4355 9.58808 4.00933 10.0942 4.00933C10.6002 4.00933 11.0264 4.4355 11.0264 4.94158V9.57577H14.9948C15.5009 9.57577 15.927 10.0019 15.927 10.508C15.9001 11.0405 15.5007 11.4666 14.9681 11.4666L14.968 11.4668Z" fill="#949AAC"/>
</svg>
