<svg width="23" height="22" viewBox="0 0 23 22" fill="none" xmlns="http://www.w3.org/2000/svg">
<path fill-rule="evenodd" clip-rule="evenodd" d="M3.70898 9.45664C3.70898 5.2401 7.23254 1.83203 11.4946 1.83203C15.7688 1.83203 19.2923 5.2401 19.2923 9.45664C19.2923 11.5814 18.5196 13.554 17.2477 15.226C15.8446 17.0703 14.1151 18.6771 12.1685 19.9384C11.723 20.2299 11.3209 20.2519 10.8319 19.9384C8.87416 18.6771 7.14473 17.0703 5.75361 15.226C4.4808 13.554 3.70898 11.5814 3.70898 9.45664ZM8.92924 9.69594C8.92924 11.1085 10.0819 12.2194 11.4952 12.2194C12.9094 12.2194 14.0732 11.1085 14.0732 9.69594C14.0732 8.2944 12.9094 7.12935 11.4952 7.12935C10.0819 7.12935 8.92924 8.2944 8.92924 9.69594Z" fill="#949AAC"/>
</svg>
