<svg width="20" height="20" viewBox="0 0 20 20" fill="none" xmlns="http://www.w3.org/2000/svg">
<path fill-rule="evenodd" clip-rule="evenodd" d="M12.4212 13.6012C11.2923 14.4787 9.87376 15.0013 8.33317 15.0013C4.65127 15.0013 1.6665 12.0165 1.6665 8.33464C1.6665 4.65274 4.65127 1.66797 8.33317 1.66797C12.0151 1.66797 14.9998 4.65274 14.9998 8.33464C14.9998 9.87523 14.4773 11.2938 13.5997 12.4227L18.0891 16.912C18.4145 17.2375 18.4145 17.7651 18.0891 18.0906C17.7637 18.416 17.236 18.416 16.9106 18.0906L12.4212 13.6012ZM13.3332 8.33464C13.3332 11.0961 11.0946 13.3346 8.33317 13.3346C5.57175 13.3346 3.33317 11.0961 3.33317 8.33464C3.33317 5.57321 5.57175 3.33464 8.33317 3.33464C11.0946 3.33464 13.3332 5.57321 13.3332 8.33464Z" fill="white"/>
</svg>
