<svg width="15" height="15" viewBox="0 0 15 15" fill="none" xmlns="http://www.w3.org/2000/svg">
<path d="M4.61137 4.17929C5.26171 4.17929 5.78891 3.65209 5.78891 3.00175C5.78891 2.35142 5.26171 1.82422 4.61137 1.82422C3.96104 1.82422 3.43384 2.35142 3.43384 3.00175C3.43384 3.65209 3.96104 4.17929 4.61137 4.17929Z" stroke="#949AAC" stroke-width="1.1481" stroke-linecap="round" stroke-linejoin="round"/>
<path d="M9.91045 4.17929C10.5608 4.17929 11.088 3.65209 11.088 3.00175C11.088 2.35142 10.5608 1.82422 9.91045 1.82422C9.26011 1.82422 8.73291 2.35142 8.73291 3.00175C8.73291 3.65209 9.26011 4.17929 9.91045 4.17929Z" stroke="#949AAC" stroke-width="1.1481" stroke-linecap="round" stroke-linejoin="round"/>
<path d="M3.13989 5.94922H6.08373L5.49497 12.4257H3.72866L3.13989 5.94922Z" stroke="#949AAC" stroke-width="1.1481" stroke-linecap="round" stroke-linejoin="round"/>
<path d="M8.43838 5.94922H11.3822L11.971 9.18744H11.0878L10.7934 12.4257H9.02715L8.73276 9.18744H7.84961L8.43838 5.94922Z" stroke="#949AAC" stroke-width="1.1481" stroke-linecap="round" stroke-linejoin="round"/>
</svg>
